<svg xmlns="http://www.w3.org/2000/svg" viewBox="0 0 512 512">
  <defs>
    <linearGradient id="grad" x1="0%" y1="0%" x2="100%" y2="100%">
      <stop offset="0%" stop-color="#5e6ad2" />
      <stop offset="100%" stop-color="#9c73f8" />
    </linearGradient>
    <filter id="glow" x="-20%" y="-20%" width="140%" height="140%">
      <feGaussianBlur stdDeviation="8" result="blur" />
      <feComposite in="SourceGraphic" in2="blur" operator="over" />
    </filter>
  </defs>
  
  <rect width="512" height="512" rx="112" fill="#0a0a0c" />
  
  <g stroke="url(#grad)" stroke-linecap="round" stroke-linejoin="round" fill="none" filter="url(#glow)">
    <path d="M256 96 C 370 96 416 160 416 240 C 416 370 256 448 256 448 C 256 448 96 370 96 240 C 96 160 142 96 256 96 Z" stroke-width="32" />
    
    <!-- Fingerprint / Waveform mix -->
    <path d="M168 190 Q 256 120 344 190" stroke-width="24" />
    <path d="M144 256 Q 256 190 368 256" stroke-width="24" />
    <path d="M168 322 Q 256 260 344 322" stroke-width="24" />

    <line x1="208" y1="210" x2="208" y2="302" stroke-width="28" />
    <line x1="256" y1="160" x2="256" y2="352" stroke-width="28" />
    <line x1="304" y1="210" x2="304" y2="302" stroke-width="28" />
  </g>
</svg>